<svg width="215" height="68" viewBox="0 0 215 68" fill="none" xmlns="http://www.w3.org/2000/svg">
<g clip-path="url(#clip0_1694_3707)">
<path d="M5.63405 16.2814H22.8442V11.8834H5.63405V5.17489H26.6678V0.539127H10.8925C9.46385 0.534238 8.04828 0.8083 6.72696 1.3456C5.40564 1.8829 4.20456 2.67286 3.19261 3.67019C2.18065 4.66752 1.37772 5.85259 0.829862 7.15746C0.282003 8.46232 -8.55251e-06 9.8613 1.94531e-10 11.2742L1.94532e-10 27.5588H26.6866V22.923H5.63405V16.2814Z" fill="#1904FF"/>
<path d="M69.5346 20.4817C71.0671 18.5724 71.7507 16.6631 71.7507 13.7955C71.7507 10.9278 71.0821 8.43165 69.7412 6.38493C68.3316 4.27602 66.3212 2.62786 63.9644 1.64888C61.4529 0.544418 58.4017 -0.0078125 54.811 -0.0078125C51.2202 -0.0078125 48.1766 0.544418 45.68 1.64888C43.3166 2.62335 41.2993 4.27054 39.8845 6.38122C38.5423 8.42917 37.8725 10.9055 37.875 13.8103C37.8775 16.7151 38.5473 19.1667 39.8845 21.1651C41.2983 23.2767 43.3159 24.9242 45.68 25.8975C48.2091 27.0044 51.2528 27.5566 54.811 27.5542H55.149H72.239V22.8478H65.234C66.9129 22.4652 68.4792 21.8003 69.5346 20.4817ZM48.9741 21.8635C47.3642 21.283 45.9653 20.2421 44.9551 18.8733C43.9886 17.536 43.5053 15.8422 43.5053 13.7917C43.5053 11.7413 43.9886 10.0487 44.9551 8.71395C45.9674 7.34293 47.3651 6.2966 48.9741 5.70517C50.8382 5.00932 52.8188 4.66901 54.811 4.70224C56.7988 4.66276 58.7756 5.0033 60.6328 5.70517C62.2128 6.30646 63.58 7.35249 64.5654 8.71395C65.5194 10.0537 65.9952 11.7463 65.9927 13.7917C65.9902 15.8372 65.5144 17.5311 64.5654 18.8733C63.5822 20.2325 62.2137 21.273 60.6328 21.8635C58.7723 22.5517 56.797 22.8857 54.811 22.8478C52.8205 22.8793 50.8415 22.5456 48.9741 21.8635Z" fill="#1904FF"/>
<path d="M89.5247 0.539062H83.8906V18.1015C83.8906 19.345 84.1386 20.5763 84.6203 21.7249C85.1021 22.8735 85.8082 23.9169 86.6982 24.7953C87.5881 25.6738 88.6446 26.37 89.807 26.8442C90.9693 27.3183 92.2149 27.5611 93.4723 27.5587H107.681V22.9229H89.5247V0.539062Z" fill="#1904FF"/>
<path d="M119.25 11.2741V27.5587H124.865V16.7865H142.094V12.4405H124.865V5.17484H145.899V0.539079H130.124C128.697 0.536637 127.283 0.812505 125.964 1.3509C124.645 1.88929 123.446 2.67964 122.436 3.67673C121.426 4.67381 120.625 5.85806 120.078 7.16171C119.531 8.46536 119.25 9.86282 119.25 11.2741Z" fill="#1904FF"/>
<path d="M163.303 0.539062H157.688V27.5587H163.303V0.539062Z" fill="#1904FF"/>
<path d="M202.831 0.539062V20.319L186.518 4.4542C183.96 1.95442 180.511 0.548437 176.914 0.539062V27.5587H182.548V7.93102L198.868 23.6993C201.428 26.1737 204.866 27.559 208.446 27.5587H208.476V0.539062H202.831Z" fill="#1904FF"/>
</g>
<path d="M4.08407 49.3727L3.33174 53.6538H7.86363L7.64868 54.9076H3.11679L2.32864 59.2962H7.41581L7.18295 60.5859H0.465727L2.68689 48.0829H9.3862L9.15334 49.3727H4.08407ZM14.2351 48.1009L16.2233 58.8305L22.0449 48.1009H23.8004L16.8682 60.5859H14.9874L12.4796 48.1009H14.2351ZM28.597 49.3727L27.8447 53.6538H32.3766L32.1616 54.9076H27.6298L26.8416 59.2962H31.9288L31.6959 60.5859H24.9787L27.1999 48.0829H33.8992L33.6663 49.3727H28.597ZM42.0081 48.1009C43.25 48.1009 44.1875 48.3695 44.8204 48.9069C45.4533 49.4443 45.7698 50.1608 45.7698 51.0564C45.7698 51.1997 45.7459 51.4386 45.6981 51.7729C45.5429 52.6327 45.1607 53.391 44.5517 54.0478C43.9427 54.7046 43.1247 55.1405 42.0977 55.3555L44.3009 60.5859H42.3484L40.2706 55.4808H38.3181L37.4046 60.5859H35.7745L37.9957 48.1009H42.0081ZM44.0143 51.7729C44.0501 51.558 44.0681 51.361 44.0681 51.1818C44.0681 50.6086 43.877 50.1668 43.4949 49.8563C43.1247 49.5458 42.5515 49.3906 41.7752 49.3906H39.3929L38.551 54.1732H40.9513C41.835 54.1732 42.5335 53.9583 43.047 53.5284C43.5605 53.0865 43.883 52.5014 44.0143 51.7729ZM59.2472 48.1009L53.8017 55.8749L52.9598 60.5859H51.3298L52.1717 55.8749L49.449 48.1009H51.2761L53.2285 54.3882L57.4022 48.1009H59.2472ZM73.5385 48.1009C74.7804 48.1009 75.7178 48.3695 76.3507 48.9069C76.9837 49.4443 77.3001 50.1608 77.3001 51.0564C77.3001 51.1997 77.2762 51.4386 77.2285 51.7729C77.0732 52.6327 76.6911 53.391 76.0821 54.0478C75.473 54.7046 74.655 55.1405 73.628 55.3555L75.8313 60.5859H73.8788L71.8009 55.4808H69.8485L68.9349 60.5859H67.3049L69.526 48.1009H73.5385ZM75.5447 51.7729C75.5805 51.558 75.5984 51.361 75.5984 51.1818C75.5984 50.6086 75.4073 50.1668 75.0252 49.8563C74.655 49.5458 74.0818 49.3906 73.3056 49.3906H70.9232L70.0813 54.1732H72.4816C73.3653 54.1732 74.0639 53.9583 74.5774 53.5284C75.0909 53.0865 75.4133 52.5014 75.5447 51.7729ZM83.6304 48.1009L82.2332 55.9824C82.1735 56.3407 82.1436 56.6332 82.1436 56.8601C82.1436 57.6722 82.3705 58.2752 82.8243 58.6693C83.2781 59.0634 83.911 59.2604 84.7231 59.2604C85.6903 59.2604 86.4904 58.9917 87.1233 58.4543C87.7563 57.905 88.1742 57.081 88.3772 55.9824L89.7744 48.1009H91.4045L90.0073 55.9824C89.8281 57.0213 89.4639 57.899 88.9146 58.6156C88.3772 59.3201 87.7204 59.8456 86.9442 60.1919C86.168 60.5382 85.3381 60.7113 84.4544 60.7113C83.2721 60.7113 82.3168 60.4068 81.5884 59.7978C80.8599 59.1888 80.4957 58.2931 80.4957 57.1109C80.4957 56.7526 80.5315 56.3765 80.6032 55.9824L82.0003 48.1009H83.6304ZM103.42 51.755C103.241 52.794 102.734 53.6597 101.898 54.3524C101.062 55.033 99.9214 55.3734 98.4764 55.3734H96.0761L95.1447 60.5859H93.5146L95.7358 48.1009H99.7661C101.008 48.1009 101.94 48.3695 102.561 48.9069C103.181 49.4324 103.492 50.1369 103.492 51.0206C103.492 51.1759 103.468 51.4207 103.42 51.755ZM98.7093 54.0837C99.6049 54.0837 100.304 53.8807 100.805 53.4746C101.307 53.0567 101.623 52.4835 101.754 51.755C101.79 51.5401 101.808 51.343 101.808 51.1639C101.808 49.9817 101.05 49.3906 99.5333 49.3906H97.133L96.309 54.0837H98.7093ZM109.118 49.3727L108.366 53.6538H112.898L112.683 54.9076H108.151L107.363 59.2962H112.45L112.217 60.5859H105.5L107.721 48.0829H114.42L114.188 49.3727H109.118ZM119.914 49.3727L119.162 53.6538H123.694L123.479 54.9076H118.947L118.159 59.2962H123.246L123.013 60.5859H116.296L118.517 48.0829H125.216L124.983 49.3727H119.914ZM134.541 54.3344C134.756 53.1164 135.221 52.0237 135.938 51.0564C136.666 50.0772 137.55 49.3129 138.589 48.7636C139.64 48.2143 140.738 47.9396 141.885 47.9396C143.246 47.9396 144.375 48.268 145.27 48.9248C146.178 49.5816 146.763 50.5131 147.026 51.7192H145.073C144.858 50.9908 144.458 50.4295 143.873 50.0354C143.288 49.6294 142.542 49.4264 141.634 49.4264C140.762 49.4264 139.944 49.6294 139.18 50.0354C138.428 50.4295 137.789 51.0027 137.263 51.755C136.738 52.4954 136.386 53.3552 136.207 54.3344C136.147 54.6449 136.117 55.0032 136.117 55.4092C136.117 56.5795 136.457 57.5109 137.138 58.2036C137.831 58.8842 138.75 59.2246 139.896 59.2246C140.804 59.2246 141.622 59.0275 142.351 58.6335C143.079 58.2394 143.676 57.6781 144.142 56.9497H146.094C145.414 58.1439 144.506 59.0693 143.372 59.7261C142.249 60.371 141.007 60.6934 139.646 60.6934C138.631 60.6934 137.729 60.4844 136.941 60.0665C136.153 59.6366 135.538 59.0395 135.096 58.2752C134.654 57.499 134.433 56.6093 134.433 55.6062C134.433 55.1883 134.469 54.7643 134.541 54.3344ZM155.184 60.7113C154.145 60.7113 153.232 60.4964 152.444 60.0665C151.655 59.6246 151.04 59.0096 150.599 58.2215C150.169 57.4333 149.954 56.5317 149.954 55.5167C149.954 54.1075 150.27 52.8298 150.903 51.6834C151.548 50.525 152.432 49.6175 153.554 48.9607C154.677 48.2919 155.931 47.9576 157.316 47.9576C158.367 47.9576 159.286 48.1785 160.074 48.6203C160.874 49.0502 161.489 49.6593 161.919 50.4474C162.349 51.2236 162.564 52.1193 162.564 53.1343C162.564 54.5554 162.242 55.8451 161.597 57.0034C160.964 58.1498 160.086 59.0574 158.964 59.7261C157.841 60.3829 156.581 60.7113 155.184 60.7113ZM155.417 59.2425C156.468 59.2425 157.405 58.9738 158.229 58.4364C159.065 57.8871 159.716 57.1527 160.182 56.2332C160.648 55.3137 160.88 54.3165 160.88 53.2418C160.88 52.0595 160.54 51.1281 159.859 50.4474C159.179 49.7667 158.253 49.4264 157.083 49.4264C156.032 49.4264 155.089 49.7011 154.253 50.2504C153.429 50.7877 152.784 51.5162 152.318 52.4357C151.864 53.3433 151.638 54.3344 151.638 55.4092C151.638 56.5914 151.972 57.5289 152.641 58.2215C153.321 58.9022 154.247 59.2425 155.417 59.2425ZM168.997 48.1009L167.6 55.9824C167.54 56.3407 167.51 56.6332 167.51 56.8601C167.51 57.6722 167.737 58.2752 168.191 58.6693C168.645 59.0634 169.278 59.2604 170.09 59.2604C171.057 59.2604 171.857 58.9917 172.49 58.4543C173.123 57.905 173.541 57.081 173.744 55.9824L175.141 48.1009H176.771L175.374 55.9824C175.195 57.0213 174.831 57.899 174.281 58.6156C173.744 59.3201 173.087 59.8456 172.311 60.1919C171.535 60.5382 170.705 60.7113 169.821 60.7113C168.639 60.7113 167.684 60.4068 166.955 59.7978C166.227 59.1888 165.862 58.2931 165.862 57.1109C165.862 56.7526 165.898 56.3765 165.97 55.9824L167.367 48.1009H168.997ZM188.698 60.5859H187.067L182.285 50.6444L180.511 60.5859H178.881L181.103 48.0829H182.733L187.533 58.0065L189.289 48.0829H190.919L188.698 60.5859ZM202.976 48.1009L202.743 49.3727H199.34L197.369 60.5859H195.739L197.71 49.3727H194.306L194.539 48.1009H202.976ZM208.655 60.7113C207.496 60.7113 206.553 60.4367 205.825 59.8873C205.108 59.3261 204.75 58.5797 204.75 57.6483C204.75 57.4691 204.756 57.3378 204.768 57.2542H206.38C206.344 57.8393 206.523 58.3409 206.917 58.7589C207.311 59.1768 207.914 59.3858 208.726 59.3858C209.538 59.3858 210.183 59.2007 210.661 58.8305C211.139 58.4603 211.377 57.9408 211.377 57.2721C211.377 56.8661 211.258 56.5257 211.019 56.2511C210.792 55.9645 210.506 55.7316 210.159 55.5525C209.825 55.3614 209.365 55.1525 208.78 54.9256C208.064 54.639 207.484 54.3703 207.043 54.1195C206.613 53.8687 206.248 53.5284 205.95 53.0985C205.651 52.6686 205.514 52.1252 205.538 51.4684C205.538 50.7758 205.723 50.1608 206.093 49.6234C206.463 49.0861 206.971 48.6741 207.616 48.3875C208.273 48.0889 209.019 47.9396 209.855 47.9396C210.667 47.9396 211.365 48.077 211.951 48.3516C212.548 48.6263 212.996 49.0084 213.294 49.498C213.593 49.9877 213.724 50.537 213.688 51.146H211.986C212.01 50.8355 211.939 50.537 211.771 50.2504C211.616 49.9638 211.365 49.7309 211.019 49.5518C210.685 49.3727 210.267 49.2831 209.765 49.2831C208.989 49.2831 208.362 49.4682 207.884 49.8384C207.419 50.1966 207.186 50.6922 207.186 51.3251C207.186 51.6953 207.293 52.0177 207.508 52.2924C207.735 52.5551 208.016 52.782 208.35 52.9731C208.685 53.1522 209.144 53.3672 209.729 53.6179C210.434 53.9165 211.007 54.1971 211.449 54.4598C211.903 54.7106 212.285 55.0509 212.595 55.4808C212.906 55.9108 213.061 56.4481 213.061 57.093C213.061 57.7856 212.882 58.4066 212.524 58.9559C212.166 59.4933 211.652 59.9232 210.983 60.2456C210.315 60.5561 209.538 60.7113 208.655 60.7113Z" fill="#1E1E44"/>
<defs>
<clipPath id="clip0_1694_3707">
<rect width="208.437" height="27.562" fill="white"/>
</clipPath>
</defs>
</svg>
